<svg xmlns="http://www.w3.org/2000/svg" version="1.1" xmlns:xlink="http://www.w3.org/1999/xlink" xmlns:svgjs="http://svgjs.dev/svgjs" width="1000" height="621" viewBox="0 0 1000 621"><g transform="matrix(1,0,0,1,-0.6056348047761162,-0.1513093041621687)"><svg viewBox="0 0 396 246" data-background-color="#ffffff" preserveAspectRatio="xMidYMid meet" height="621" width="1000" xmlns="http://www.w3.org/2000/svg" xmlns:xlink="http://www.w3.org/1999/xlink"><g id="tight-bounds" transform="matrix(1,0,0,1,0.24008861730862918,0.06014573971856407)"><svg viewBox="0 0 395.52 245.87991530887416" height="245.87991530887416" width="395.52"><g><svg viewBox="0 0 395.52 245.87991530887416" height="245.87991530887416" width="395.52"><g><svg viewBox="0 0 395.52 245.87991530887416" height="245.87991530887416" width="395.52"><g id="textblocktransform"><svg viewBox="0 0 395.52 245.87991530887416" height="245.87991530887416" width="395.52" id="textblock"><g><svg viewBox="0 0 395.52 245.87991530887416" height="245.87991530887416" width="395.52"><path d="M394.594 52.737C392.735 27.214 387.435 20.119 387.435 20.119 371.165-6.169 350.86-0.503 332.619 3.274 300.414 3.428 268.339 9.042 236.208 12.054 168.767 12.513 100.749 4.959 33.643 23.59 27.339 29.307-6.54 24.713 1.121 56.003 3.129 69.02 10.456 83.465 10.232 95.41 11.236 97.503 12.631 92.704 13.226 95.716 15.309 103.832 18.711 100.004 21.501 104.802 17.614 117.614 20.403 128.282 23.062 139.461 18.377 142.371 12.371 140.992 9.675 150.64 9.396 157.633 7.89 156.306 6.235 156 5.026 155.795 2.59 156.561 2.999 158.756 4.394 166.259-1.594 170.598 2.162 177.949-0.422 185.912 3.948 192.803 3.353 201.429 3.278 203.165 3.687 204.645 4.338 205.053 7.22 207.248 3.018 211.536 3.464 216.181 33.029 247.931 65.104 225.982 95.394 240.58 103.259 230.371 97.346 244.204 100.489 242.061 102.943 239.559 104.728 249.921 107.499 244.051 107.927 242.367 107.276 238.385 108.8 239.151 109.6 239.559 110.307 239.457 110.418 237.109 110.586 233.587 109.117 235.782 108.726 233.945 112.947 224.654 111.906 246.757 115.866 245.838 115.68 243.133 114.528 239.253 116.889 239.764 119.232 235.884 119.306 232.668 121.389 241.397 121.463 243.286 121.835 244.613 122.43 245.532 128.938 236.037 135.409 248.901 142.233 244.613 146.417 239.917 150.433 247.165 154.672 245.378 156.16 243.949 157.666 241.397 159.098 245.685 176.632 246.604 195.319 242.775 211.943 245.838 256.364 240.121 303.836 248.186 350.674 240.631 361.719 237.722 373.192 233.587 383.958 230.269 383.958 230.269 392.679 221.183 392.679 180.348S394.538 144.617 394.817 112.101C395.096 79.586 396.398 78.259 394.538 52.737Z" opacity="1" fill="#0080ff" data-fill-palette-color="tertiary"></path><g transform="matrix(1,0,0,1,55.76832,26.230666666666668)"><svg width="283.98335999999995" viewBox="0.4 -35.4 53.15 36.199999999999996" height="193.41858197554083" data-palette-color="#ffffff"><path d="M12.9-35.4Q16.3-35.4 18.88-34.3 21.45-33.2 23.6-31.05L23.6-31.05 20.25-27.2Q18.6-28.65 16.95-29.33 15.3-30 13.5-30L13.5-30Q11.45-30 10.28-28.98 9.1-27.95 9.1-26.15L9.1-26.15Q9.1-24.95 9.63-24.13 10.15-23.3 11.45-22.55 12.75-21.8 15.25-20.9L15.25-20.9Q18.35-19.75 20.33-18.4 22.3-17.05 23.38-15 24.45-12.95 24.45-9.95L24.45-9.95Q24.45-6.85 22.98-4.42 21.5-2 18.7-0.6 15.9 0.8 12.15 0.8L12.15 0.8Q5.1 0.8 0.4-4L0.4-4 4-8Q5.9-6.35 7.78-5.5 9.65-4.65 11.8-4.65L11.8-4.65Q14.25-4.65 15.6-5.95 16.95-7.25 16.95-9.5L16.95-9.5Q16.95-11.5 15.73-12.73 14.5-13.95 11.2-15.15L11.2-15.15Q6.1-17.05 3.9-19.45 1.7-21.85 1.7-25.65L1.7-25.65Q1.7-28.5 3.15-30.73 4.6-32.95 7.15-34.18 9.7-35.4 12.9-35.4L12.9-35.4ZM45.6 0L39.05-13.65 35.95-13.65 35.95 0 28.75 0 28.75-34.6 38.35-34.6Q51.65-34.6 51.65-24.3L51.65-24.3Q51.65-17.55 45.6-15L45.6-15 53.55 0 45.6 0ZM35.95-18.7L38.7-18.7Q41.55-18.7 42.87-20.05 44.2-21.4 44.2-24.3L44.2-24.3Q44.2-26.95 42.77-28.2 41.35-29.45 38.3-29.45L38.3-29.45 35.95-29.45 35.95-18.7Z" opacity="1" transform="matrix(1,0,0,1,0,0)" fill="#ffffff" class="undefined-text-0" data-fill-palette-color="quaternary" id="text-0"></path></svg></g></svg></g></svg></g></svg></g><g></g></svg></g><defs></defs></svg><rect width="395.52" height="245.87991530887416" fill="none" stroke="none" visibility="hidden"></rect></g></svg></g></svg>